<svg viewBox="-6.4 -6.4 76.80 76.80" xmlns="http://www.w3.org/2000/svg" xmlns:xlink="http://www.w3.org/1999/xlink"
  aria-hidden="true" role="img" class="iconify iconify--emojione" preserveAspectRatio="xMidYMid meet" fill="#000000"
  stroke="#000000" stroke-width="0.00064">
  <g id="SVGRepo_bgCarrier" stroke-width="0">
    <rect x="-3.6" y="-3.6" width="43.20" height="43.20" rx="8.64" fill="#ffffff" strokewidth="0"></rect>
  </g>
  <g id="SVGRepo_tracerCarrier" stroke-linecap="round" stroke-linejoin="round" stroke="#CCCCCC" stroke-width="0.512">
  </g>
  <g id="SVGRepo_iconCarrier">
    <path d="M32 2v30H2c0 16.6 13.4 30 30 30s30-13.4 30-30S48.6 2 32 2z" fill="#ed4c5c"></path>
    <path d="M32 2C15.4 2 2 15.4 2 32h30V2z" fill="#2a5f9e"></path>
    <path
      d="M24 20.3l5-1.3l-5-1.3l3.7-3.7l-5 1.3l1.3-5l-3.7 3.7L19 9l-1.3 5l-3.7-3.7l1.3 5l-5-1.3l3.7 3.7L9 19l5 1.3l-3.7 3.7l5-1.3l-1.3 5l3.7-3.7l1.3 5l1.3-5l3.7 3.7l-1.3-5l5 1.3l-3.7-3.7"
      fill="#ffffff"></path>
    <circle cx="19" cy="19" r="5.7" fill="#428bc1"></circle>
    <circle cx="19" cy="19" r="5" fill="#ffffff"></circle>
  </g>
</svg>