<svg t="1710301757316" class="icon" viewBox="0 0 1024 1024" version="1.1" xmlns="http://www.w3.org/2000/svg"
  p-id="41674" width="200" height="200">
  <path
    d="M870.4 1024h-716.8c-84.48 0-153.6-69.12-153.6-153.6v-716.8c0-84.48 69.12-153.6 153.6-153.6h716.8c84.48 0 153.6 69.12 153.6 153.6v716.8c0 84.48-69.12 153.6-153.6 153.6z"
    fill="#F03D37" p-id="41675"></path>
  <path
    d="M385.024 415.232l-23.552 140.288h48.128l-23.552-140.288h-1.024z m126.976-288.768c-212.992 0-385.536 172.544-385.536 385.536s172.544 385.536 385.536 385.536 385.536-172.544 385.536-385.536-172.544-385.536-385.536-385.536z m-83.456 551.936l-8.704-57.856h-68.608l-8.704 57.856h-90.112l78.848-330.24h108.032l80.384 330.24h-91.136z m326.144-102.912c-1.536 19.968-5.632 37.376-12.8 52.736-7.168 15.36-17.408 27.648-31.232 36.352-13.824 9.216-33.28 13.824-58.368 13.824H527.36v-330.24h124.928c25.088 0 44.544 4.608 58.368 13.824 13.824 9.216 24.064 21.504 31.232 36.352 7.168 15.36 11.264 32.768 12.8 52.736 1.536 19.968 2.56 40.448 2.56 62.464 0 20.992-1.024 41.984-2.56 61.952z m-92.672-147.456c-2.56-7.168-6.656-12.288-11.264-14.336-5.12-2.56-11.776-3.584-19.968-3.584h-16.896v206.336h16.896c8.192 0 14.848-1.024 19.968-3.584 5.12-2.56 8.704-7.168 11.264-14.336 2.56-7.168 4.096-17.92 5.12-31.232 0.512-13.312 1.024-31.232 1.024-53.76 0-22.016-0.512-39.936-1.024-53.76-1.024-13.824-2.56-24.576-5.12-31.744z"
    fill="#FFFFFF" p-id="41676"></path>
</svg>