<svg t="1710309980626" class="icon" viewBox="0 0 1024 1024" version="1.1" xmlns="http://www.w3.org/2000/svg"
  p-id="57237" width="200" height="200">
  <path
    d="M832 106.666667H192C145.066667 106.666667 106.666667 145.066667 106.666667 192v640c0 46.933333 38.4 85.333333 85.333333 85.333333h640c46.933333 0 85.333333-38.4 85.333333-85.333333V192c0-46.933333-38.4-85.333333-85.333333-85.333333z m-224 149.333333c17.066667 0 32 14.933333 32 32s-14.933333 32-32 32-32-14.933333-32-32 14.933333-32 32-32zM512 768c0 12.8-8.533333 21.333333-21.333333 21.333333h-85.333334c-23.466667 0-42.666667-19.2-42.666666-42.666666v-64h-42.666667c-23.466667 0-42.666667-19.2-42.666667-42.666667v-64l-53.333333-12.8c-14.933333-4.266667-21.333333-21.333333-10.666667-34.133333l64-81.066667c0-106.666667 85.333333-192 192-192h21.333334c12.8 0 21.333333 8.533333 21.333333 21.333333v490.666667z m96 21.333333c-17.066667 0-32-14.933333-32-32s14.933333-32 32-32 32 14.933333 32 32-14.933333 32-32 32z m149.333333 0c-29.866667 0-53.333333-23.466667-53.333333-51.2L640 682.666667h-32c-17.066667 0-32-14.933333-32-32s14.933333-32 32-32h49.066667c2.133333 0 4.266667 0 4.266666 2.133333h2.133334c2.133333 0 2.133333 2.133333 4.266666 2.133333 0 0 2.133333 0 2.133334 2.133334 0 0 2.133333 0 2.133333 2.133333l70.4 59.733333c4.266667-4.266667 8.533333-4.266667 14.933333-4.266666 29.866667 0 53.333333 23.466667 53.333334 53.333333S787.2 789.333333 757.333333 789.333333z m0-213.333333c-17.066667 0-32-8.533333-42.666666-21.333333h-106.666667c-17.066667 0-32-14.933333-32-32s14.933333-32 32-32h106.666667c10.666667-12.8 25.6-21.333333 42.666666-21.333334 29.866667 0 53.333333 23.466667 53.333334 53.333334S787.2 576 757.333333 576z m0-213.333333c-6.4 0-10.666667 0-14.933333-2.133334l-70.4 59.733334s-2.133333 0-2.133333 2.133333h-2.133334c-2.133333 0-2.133333 2.133333-4.266666 2.133333H661.333333c-2.133333 0-2.133333 0-4.266666 2.133334H650.666667h-44.8c-17.066667 0-32-14.933333-32-32s14.933333-32 32-32H640l64-55.466667c0-29.866667 23.466667-51.2 53.333333-51.2s53.333333 23.466667 53.333334 53.333333-23.466667 53.333333-53.333334 53.333334z"
    p-id="57238"></path>
</svg>