<svg t="1710309833245" class="icon" viewBox="0 0 1024 1024" version="1.1" xmlns="http://www.w3.org/2000/svg"
  p-id="43120" width="200" height="200">
  <path
    d="M960 70.4C896 6.4 819.2 0 710.4 0H313.6C204.8 0 134.4 0 70.4 64 0 134.4 0 204.8 0 313.6V704c0 108.8 0 179.2 64 249.6 64 64 140.8 70.4 249.6 70.4H704c108.8 0 179.2 0 249.6-64 64-64 70.4-140.8 70.4-249.6V313.6c0-108.8 0-179.2-64-243.2z"
    fill="#E0E0E0" p-id="43121"></path>
  <path
    d="M684.8 505.6c0-6.4 0-76.8 64-128-12.8-12.8-38.4-38.4-76.8-44.8h-25.6c-19.2 0-51.2 6.4-89.6 19.2 0 0-19.2 6.4-38.4 6.4-25.6 0-44.8-6.4-70.4-25.6 0 0-12.8-6.4-32-6.4-12.8 0-25.6 0-38.4 6.4-6.4 0-102.4 25.6-121.6 128 0 0-12.8 128 57.6 256 12.8 25.6 57.6 89.6 108.8 89.6h6.4c6.4 0 25.6 0 57.6-12.8 0 0 19.2-6.4 44.8-6.4 25.6 0 44.8 6.4 70.4 12.8 0 0 19.2 6.4 38.4 6.4 12.8 0 25.6 0 32-6.4 0 0 51.2-25.6 96-147.2-25.6-12.8-76.8-57.6-83.2-147.2zM608 249.6c25.6-25.6 25.6-57.6 32-83.2-89.6 32-102.4 96-108.8 128 38.4-12.8 64-25.6 76.8-44.8z"
    fill="#565656" p-id="43122"></path>
</svg>