<svg t="1710308941787" class="icon" viewBox="0 0 1024 1024" version="1.1" xmlns="http://www.w3.org/2000/svg"
  p-id="97400" width="200" height="200">
  <path d="M102.86 0h818.28Q1024 0 1024 102.86v818.28Q1024 1024 921.14 1024H102.86Q0 1024 0 921.14V102.86Q0 0 102.86 0z"
    fill="#EB9D26" p-id="97401"></path>
  <path
    d="M516.403 587.418a18.176 18.176 0 0 1-18.227-18.176v-153.6a18.227 18.227 0 1 1 36.403 0v153.6a18.176 18.176 0 0 1-18.176 18.176z m0 69.99a19.558 19.558 0 1 1 21.607-19.456 20.48 20.48 0 0 1-21.607 19.456z m0.41-16.128z m-0.41-6.4a4.403 4.403 0 0 0-1.126 3.072 4.147 4.147 0 0 0 1.126 3.02 4.147 4.147 0 0 0 1.127-3.02 4.403 4.403 0 0 0-1.127-3.072z"
    fill="#FFFFFF" p-id="97402"></path>
  <path
    d="M753.818 748.493H274.33a53.555 53.555 0 0 1-46.388-80.333l239.77-415.283a52.992 52.992 0 0 1 46.387-26.778 53.094 53.094 0 0 1 46.387 26.778L800.205 668.16a53.555 53.555 0 0 1-46.387 80.333z m-474.47-56.32H748.8L514.1 285.645z"
    fill="#FFFFFF" p-id="97403"></path>
</svg>