<svg t="1710310695434" class="icon" viewBox="0 0 1024 1024" version="1.1" xmlns="http://www.w3.org/2000/svg"
  p-id="70662" width="200" height="200">
  <path
    d="M5.885057 0m105.931035 0l800.367816 0q105.931034 0 105.931035 105.931034l0 812.137932q0 105.931034-105.931035 105.931034l-800.367816 0q-105.931034 0-105.931035-105.931034l0-812.137932q0-105.931034 105.931035-105.931034Z"
    fill="#00C1DE" p-id="70663"></path>
  <path
    d="M260.278437 636.933885c39.988966-26.423908 79.354115-54.80754 122.409195-75.852506 44.773517-19.42069 88.905563-35.410391 135.056184-51.835586a1391.692506 1391.692506 0 0 1 137.504368-41.907494 1299.214713 1299.214713 0 0 1 141.600368-27.65977l-7.226851 14.783264a197.378943 197.378943 0 0 0-41.742712-47.633655 295.329839 295.329839 0 0 0-53.618759-35.245609q-7.173885-3.742897-14.500782-7.173885c-4.884598-2.301057-9.804506-4.537379-14.783264-6.66777s-10.004598-4.172506-15.053977-6.12046-10.145839-3.872368-15.259954-5.684966a648.862897 648.862897 0 0 0-62.658207-18.685057 664.717241 664.717241 0 0 0-64.358989-12.470437 271.82492 271.82492 0 0 0-7.991908-1.00046l-8.345011-0.918069q-8.350897-0.965149-16.690023-2.012689c-11.122759-1.377103-22.227862-2.942529-33.321195-4.672736-22.169011-3.501609-44.290943-7.597609-66.130391-13.188414-5.455448-1.418299-10.893241-2.942529-16.301609-4.555034s-10.78731-3.378023-16.089748-5.396598a152.08754 152.08754 0 0 1-15.648367-6.797241 72.562759 72.562759 0 0 1-7.426943-4.390253 36.028322 36.028322 0 0 1-3.478069-2.677701 20.51531 20.51531 0 0 1-1.606621-1.588966 14.230069 14.230069 0 0 1-0.747402-0.906299q-0.188322-0.247172-0.353103-0.512l-0.170667-0.288368a4.078345 4.078345 0 0 1-0.200092-0.406069 1.200552 1.200552 0 1 1 2.201012-0.959264c0-0.058851 0 0 0.05885 0.047081l0.123586 0.141241a6.597149 6.597149 0 0 0 0.982805 0.894529 17.749333 17.749333 0 0 0 1.57131 1.124046 34.186299 34.186299 0 0 0 3.472184 1.947954 68.578575 68.578575 0 0 0 7.503448 3.09554 153.229241 153.229241 0 0 0 15.760184 4.566805c10.693149 2.518805 21.545195 4.502069 32.473747 6.079264 21.845333 3.213241 43.878989 5.390713 65.95384 7.15623 11.034483 0.912184 22.092506 1.636046 33.144643 2.354023l16.595862 0.971034 8.303816 0.46492c2.942529 0.158897 5.790897 0.382529 8.639265 0.588506 11.375816 0.947494 22.616276 2.354023 33.83908 4.060689s22.363218 3.754667 33.485977 6.061609a521.157149 521.157149 0 0 1 65.741977 18.243679c5.378943 1.912644 10.734345 3.895908 16.048552 6.002758s10.593103 4.349057 15.819034 6.66777 10.440092 4.708046 15.577748 7.297472 10.222345 5.255356 15.248183 8.050758a321.477149 321.477149 0 0 1 29.313472 18.37315 284.736736 284.736736 0 0 1 27.19485 21.662896 225.76846 225.76846 0 0 1 44.273288 53.989517l7.603494 13.117793-14.830345 1.659587a1261.868138 1261.868138 0 0 0-140.235034 23.987494 1417.957517 1417.957517 0 0 0-137.245426 39.494621c-45.126621 15.095172-89.582345 31.414437-133.102344 50.852781q-32.632644 14.583172-64.506115 30.849471-15.936736 8.109609-31.632184 16.701794c-10.440092 5.749701-20.838989 11.634759-30.955403 17.896459a1.200552 1.200552 0 0 1-1.294712-2.024459z"
    fill="#FFFFFF" p-id="70664"></path>
  <path
    d="M255.923494 641.388874c15.301149-12.152644 30.213885-24.817287 44.355678-38.252874a508.168828 508.168828 0 0 0 40.165518-42.372414 393.304276 393.304276 0 0 0 17.872919-22.951724 258.718897 258.718897 0 0 0 15.624828-24.334713q1.765517-3.10731 3.307402-6.302896l0.376644-0.782713 0.411954-0.894529 0.735632-1.683126 1.400644-3.319172q1.377103-3.330943 2.648276-6.703081t2.477609-6.744276q2.354023-6.756046 4.272551-13.641563c1.288828-4.57269 2.354023-9.19246 3.313288-13.806345s1.694897-9.25131 2.253977-13.924046 0.965149-9.310161 1.124046-13.965241q0.129471-3.489839 0.088276-6.973793t-0.188322-6.956138q-0.353103-6.926713-1.377104-13.80046a153.264552 153.264552 0 0 0-17.655172-52.106299 178.034759 178.034759 0 0 0-15.301149-23.175356 182.889931 182.889931 0 0 0-18.679173-20.568276q-2.495264-2.354023-5.10823-4.560919l-1.282942-1.065196-1.177012-0.929839-0.394299-0.306023-0.088276-0.076506-0.170666-0.153011-0.347219-0.300138-0.700321-0.647356-1.394759-1.306483-2.754207-2.636506q-1.335908-1.377103-2.648276-2.777747c-1.765517-1.847908-3.413333-3.854713-5.055264-5.885058a62.793563 62.793563 0 0 1-8.345012-13.565057 27.542069 27.542069 0 0 1-2.230436-8.127264 12.182069 12.182069 0 0 1 0.311908-4.413793 6.979678 6.979678 0 0 1 0.953379-2.018575 3.395678 3.395678 0 0 1 1.612506-1.324138 4.11954 4.11954 0 0 0 0.135356 3.348598 11.899586 11.899586 0 0 0 1.700782 2.748321 37.075862 37.075862 0 0 0 4.755126 4.708046c3.466299 2.942529 7.226851 5.67908 11.034483 8.380322 1.871448 1.388874 3.837057 2.689471 5.726161 4.07246q1.435954 1.018115 2.901333 2.01269l2.877793 2.053885 2.607081 1.818482 0.923954 0.682667 0.812138 0.623816 1.565425 1.241747q3.03669 2.454069 5.943908 5.067035a180.594759 180.594759 0 0 1 37.89977 48.298667 162.098023 162.098023 0 0 1 11.987862 28.513103 155.118345 155.118345 0 0 1 6.173425 30.331586 159.70869 159.70869 0 0 1-5.996873 60.751448c-1.406529 4.866943-3.077885 9.639724-4.878713 14.336s-3.807632 9.310161-5.967448 13.824q-1.618391 3.383908-3.342713 6.714851t-3.589885 6.561839l-1.871448 3.242667-0.935724 1.58308-0.382529 0.759173-0.441379 0.859218c-1.177011 2.253977-2.442299 4.413793-3.731127 6.555954a265.20423 265.20423 0 0 1-16.913655 24.417104 373.913011 373.913011 0 0 1-18.996965 22.628045 543.77931 543.77931 0 0 1-88.405334 77.21784z"
    fill="#FFFFFF" p-id="70665"></path>
  <path
    d="M611.969471 482.35108c-8.292046-7.426943-17.655172-14.712644-26.323862-21.774712s-17.566897-13.85931-26.777011-20.268138c-4.61977-3.183816-9.286621-6.320552-14.053518-9.298391s-9.610299-5.885057-14.494896-8.651034a473.888368 473.888368 0 0 0-61.204598-29.007449 532.238713 532.238713 0 0 0-64.859218-21.00377c-22.080736-5.743816-20.009195-17.690483 2.977839-13.535632a548.334345 548.334345 0 0 1 68.10777 17.196138 494.486069 494.486069 0 0 1 65.371218 26.771126q7.956598 3.925333 15.760184 8.150805c5.208276 2.807172 10.410667 5.661425 15.536552 8.65692q15.418851 8.904092 30.137379 19.085241a307.252966 307.252966 0 0 1 28.11292 22.121931q6.69131 5.938023 13.011862 12.27623"
    fill="#FFFFFF" p-id="70666"></path>
  <path
    d="M473.835402 295.318069a214.604506 214.604506 0 0 1 13.482667 94.825931q-0.53554 6.079264-1.406529 12.123218-0.459034 3.02492-1.041655 6.026299t-1.277057 6.014529a153.429333 153.429333 0 0 1-7.421058 23.475494 170.548966 170.548966 0 0 1-10.922667 22.021885 233.789793 233.789793 0 0 1-13.535632 20.285793c-4.813977 6.508874-9.916322 12.741149-15.089287 18.867495s-10.398897 12.105563-15.854345 18.037701a422.488276 422.488276 0 0 1-34.521747 33.544827 476.101149 476.101149 0 0 1-37.811494 29.531219q-9.780966 6.897287-19.862069 13.353195-5.049379 3.201471-10.139954 6.338207c-3.413333 2.053885-6.826667 4.11954-10.292966 6.085149l9.245425-7.562298q4.637425-3.748782 9.227771-7.550529 9.19246-7.550529 18.243678-15.254069c12.064368-10.26354 23.834483-20.797793 35.204414-31.69692a580.384368 580.384368 0 0 0 40.436229-42.925609c2.58354-3.001379 5.149425-5.985103 7.650575-8.998253q7.597609-9.033563 14.630253-18.379034a222.590529 222.590529 0 0 0 12.994207-19.267678 162.816 162.816 0 0 0 10.481287-20.515311 152.59954 152.59954 0 0 0 7.326897-21.774712q0.700322-2.795402 1.312368-5.614345a221.866667 221.866667 0 0 0 1.118161-5.690851q1.076966-5.714391 1.853793-11.475862a253.557701 253.557701 0 0 0 1.924413-46.756781 324.996414 324.996414 0 0 0-5.955678-47.06869z m110.886253 20.597701c0.382529 1.518345 0.659126 3.06023 0.947494 4.59623s0.459034 3.089655 0.659127 4.649195c0.364874 3.113195 0.588506 6.244046 0.629701 9.380782a118.330851 118.330851 0 0 1-1.177011 18.832184c-0.200092 1.55954-0.459034 3.113195-0.729748 4.660965l-0.417839 2.318713-0.105931 0.588506v0.147126l-0.03531 0.158897-0.064736 0.276598-0.264827 1.11816q-1.088736 4.57269-2.354023 9.086529-2.542345 9.057103-5.832092 17.878805a209.078437 209.078437 0 0 1-16.40754 33.892046 271.412966 271.412966 0 0 1-21.556966 30.631724q-5.826207 7.250391-11.964322 14.247724l-6.085149 6.861977-6.032184 6.873747c-4.043034 4.578575-8.044874 9.22777-12.193839 13.794575q-3.10731 3.442759-6.279357 6.832552t-6.473563 6.673655a240.333977 240.333977 0 0 1-28.318896 24.164046 290.574713 290.574713 0 0 1-15.30115 10.410666q-3.907678 2.465839-7.862437 4.849288c-2.660046 1.553655-5.296552 3.11908-8.009563 4.590345l7.062069-5.961564q3.531034-2.942529 6.997334-5.961563c4.625655-4.013609 9.216-8.033103 13.688643-12.164414a328.792276 328.792276 0 0 0 25.417563-25.923678c7.956598-9.086529 15.501241-18.626207 23.304828-28.13646 1.936184-2.383448 3.931218-4.708046 5.885058-7.091494s4.013609-4.708046 5.979218-6.997333a464.272184 464.272184 0 0 0 11.599448-13.965242 285.425287 285.425287 0 0 0 20.750713-29.425287 208.260414 208.260414 0 0 0 15.924965-32.026483q3.307402-8.345011 5.885058-16.937195 1.306483-4.301977 2.454069-8.651035l0.294253-1.112275 0.076505-0.276598 0.076506-0.253058 0.158897-0.53554 0.635586-2.153931 1.218207-4.319632c1.58308-5.779126 3.042575-11.605333 4.325517-17.525701q0.965149-4.466759 1.830253-8.951173 0.459034-2.259862 0.847448-4.537379z m125.069242 38.600092a175.745471 175.745471 0 0 1-14.159449 41.630897 200.009563 200.009563 0 0 1-23.775632 37.393655 321.147586 321.147586 0 0 1-30.013793 32.32662c-5.296552 4.914023-10.72846 9.663264-16.43108 14.224184q-4.290207 3.448644-8.827587 6.603035a91.771586 91.771586 0 0 1-9.480827 5.885057c1.883218-3.272092 3.931218-6.344092 6.038069-9.357241s4.296092-5.943908 6.567724-8.827586a195.63108 195.63108 0 0 1 14.500781-16.40754c10.222345-10.116414 20.185747-20.403494 29.466483-31.190805a290.080368 290.080368 0 0 0 25.505839-34.227494q5.743816-9.104184 10.804966-18.614437a428.502805 428.502805 0 0 0 9.810391-19.438345z"
    fill="#FFFFFF" p-id="70667"></path>
  <path
    d="M356.622713 545.25646a592.366345 592.366345 0 0 1 79.766069-64.735632 726.110161 726.110161 0 0 1 184.39062-90.523954 616.059586 616.059586 0 0 1 99.934161-23.734437c-32.609103 10.357701-64.806253 21.268598-96.420781 33.609563s-62.634667 25.894253-93.054529 40.795218-60.180598 31.161379-89.205701 48.645885-57.432276 36.257839-85.409839 55.943357z m35.357425-76.664644q5.202391-6.514759 10.781425-12.717609a443.321379 443.321379 0 0 1 11.375816-12.176184 483.481011 483.481011 0 0 1 24.093426-23.022345 581.296552 581.296552 0 0 1 52.241655-41.342529 619.47292 619.47292 0 0 1 56.420046-35.345655 563.435402 563.435402 0 0 1 29.578299-15.254069c5.014069-2.354023 10.045793-4.708046 15.142252-6.914942s10.234115-4.331402 15.424736-6.302897q-6.756046 4.855172-13.623908 9.551448l-13.682759 9.345472-27.359632 18.508505q-27.318437 18.46731-54.230804 37.311265t-53.306851 38.535356q-13.229609 9.804506-26.376828 19.809104l-13.188413 10.004597q-6.60892 5.049379-13.28846 10.004598z m0.717977-92.983908c1.365333-2.224552 2.836598-4.343172 4.349057-6.426483s3.077885-4.11954 4.672736-6.114574a218.812322 218.812322 0 0 1 10.004598-11.581794 274.349609 274.349609 0 0 1 46.197701-39.606436 222.313931 222.313931 0 0 1 12.947126-8.13315c2.224552-1.271172 4.460874-2.51292 6.750161-3.689931s4.602115-2.318713 7.003219-3.336827c-1.594851 2.065655-3.277977 4.019494-4.978759 5.938023s-3.430989 3.795862-5.172965 5.65554a336.801839 336.801839 0 0 1-10.699035 10.79908q-10.899126 10.516598-22.363218 20.274023t-23.46961 18.973426a370.629149 370.629149 0 0 1-12.288 8.939402c-2.100966 1.441839-4.207816 2.877793-6.361747 4.266667s-4.319632 2.748322-6.597149 4.025379z"
    fill="#FFFFFF" p-id="70668"></path>
  <path
    d="M379.886345 286.514023a144.495816 144.495816 0 0 1 13.470896 24.640736c1.853793 4.296092 3.59577 8.645149 5.149426 13.064827q0.588506 1.653701 1.141701 3.325058c0.394299 1.177011 0.753287 2.165701 1.124046 3.360367 0.723862 2.301057 1.377103 4.57269 1.936184 6.897288a99.551632 99.551632 0 0 1 2.777747 28.424827 91.318437 91.318437 0 0 1-1.824368 14.124138 69.520184 69.520184 0 0 1-4.243126 13.623908c-0.788598-4.749241-1.241747-9.369011-1.765518-13.935816s-1.006345-9.015908-1.55954-13.535632c-1.088736-8.915862-2.406989-17.655172-4.06069-26.429793l-1.282942-6.561839a127.217287 127.217287 0 0 0-0.688552-3.313287l-0.765057-3.325058c-1.041655-4.431448-2.065655-8.886437-3.148506-13.341425-2.07154-8.898207-4.319632-17.808184-6.261701-27.018299z m17.066666 163.116138a48.339862 48.339862 0 0 1 7.568184 1.177011 65.018115 65.018115 0 0 1 7.356322 2.153931 71.309241 71.309241 0 0 1 13.882851 6.791357 75.081563 75.081563 0 0 1 22.322023 21.845333 79.136368 79.136368 0 0 1 13.235494 44.06731 74.245885 74.245885 0 0 1-0.441379 7.62115 53.624644 53.624644 0 0 1-1.330023 7.532873c-1.006345-2.354023-1.883218-4.708046-2.765977-7.020873l-2.624736-6.844322c-1.765517-4.502069-3.531034-8.886437-5.408368-13.141333a160.297195 160.297195 0 0 0-12.982436-23.987495 140.205609 140.205609 0 0 0-17.207909-20.962574 186.026667 186.026667 0 0 0-10.304735-9.622069c-1.800828-1.588966-3.660506-3.142621-5.543724-4.708046s-3.795862-3.213241-5.755587-4.902253z m-138.081103 189.49885s-75.499402 51.229425-39.047356 104.989426c0 0 26.300322 46.374253 119.749149 71.526988 0 0 106.825563 24.687816 162.892506 21.915954 0 0 6.69131-1.382989-11.999632-5.072919 0 0-53.960092-8.003678-108.443954-19.149977a308.77131 308.77131 0 0 1-90.676966-33.456552s-95.749885-52.606529-50.988138-110.521379a178.635034 178.635034 0 0 1 38.547127-40.701058"
    fill="#FFFFFF" p-id="70669"></path>
  <path
    d="M496.60469 837.184736a890.362115 890.362115 0 0 0 55.549057-186.256184s13.094253-77.158989 0-142.589058l14.765609-5.214161s14.765609 61.510621-2.306942 170.41361c0 0-15.365885 88.52892-61.051586 163.516321"
    fill="#FFFFFF" p-id="70670"></path>
  <path
    d="M502.489747 837.008184a18.379034 18.379034 0 0 1-2.754207 0.170667c-2.742437 0-2.760092-1.324138-2.760092-1.324138m-274.108322-136.015449s167.047356-46.60377 215.98161-66.913103c0 0 94.596414-36.452046 122.744643-65.065195v9.680919s-80.960736 61.851954-164.616827 83.079356c0 0-97.527172 29.531218-174.127081 43.837793v-4.613885z"
    fill="#FFFFFF" p-id="70671"></path>
  <path
    d="M266.675494 767.676322s95.590989-124.133517 122.091403-197.502529l18.655632-8.768736s-22.016 81.213793-82.137747 140.74115c0 0-42.913839 53.554023-54.913472 70.62069z m204.900046-233.513196s10.76377 66.913103-43.302253 160.126529c0 0-47.145195 89.982529-75.752459 119.978667h8.768735s47.08046-40.147862 98.28046-151.834483c0 0 33.109333-83.061701 24.405333-131.978299z m-105.213057 280.128736s145.484506-42.578391 159.661609-48.451678v4.613885s-110.750897 44.290943-159.661609 43.837793z"
    fill="#FFFFFF" p-id="70672"></path>
  <path
    d="M531.102897 763.521471s-101.058207-13.382621-156.895633-65.52423c0 0-61.834299-46.60377-37.146482-106.137011l-20.532966 4.613885s-15.230529 56.761379 29.072184 95.985287c0 0 64.600276 72.909977 185.502897 71.062069z m-123.668598-203.964322s21.227402 85.368644 147.661977 107.52l6.473563-2.771862s-142.583172-47.527724-142.583172-110.903908l-11.540598 6.15577z"
    fill="#FFFFFF" p-id="70673"></path>
  <path
    d="M274.532046 772.755126s148.01508-48.916598 181.348046-64.147126c0 0 60.910345-19.844414 105.672092-48.910713l-3.689931 7.385747a592.560552 592.560552 0 0 1-111.668966 55.837426 1201.216736 1201.216736 0 0 1-175.374712 53.989517z m210.89692-240.416367s73.357241 44.296828 82.125977 44.761747v-3.230897s-71.409287-42.913839-77.982897-47.527724z m21.668781-230.264644s-41.065931-58.603402-52.141609-111.668966c0 0-152.740782 50.758621-143.972046 77.982897l19.073471 9.298391 3.077885-1.453609s-14.765609-13.841655 35.993012-41.530851c0 0 48.916598-26.765241 83.061701-37.84092 0 0 11.534713 80.295724 39.223908 102.906115z"
    fill="#FFFFFF" p-id="70674"></path>
  <path d="M352.979862 239.309977l37.41131 49.834667 18.467311 1.847908-55.908046-56.76138z" fill="#FFFFFF"
    p-id="70675"></path>
  <path
    d="M471.57554 259.61931s-118.595678-8.303816-113.516873-25.382253h5.996873s101.258299 19.973885 107.52 18.92046z m-32.903356 32.762115s35.675218-28.101149 37.075862-28.583724l-2.306943-4.178391s-45.456184 25.776552-53.871816 27.883403 19.097011 4.878713 19.097012 4.878712z"
    fill="#FFFFFF" p-id="70676"></path>
  <path
    d="M260.278437 636.933885c39.988966-26.423908 79.354115-54.80754 122.409195-75.852506 44.773517-19.42069 88.905563-35.410391 135.056184-51.835586a1391.692506 1391.692506 0 0 1 137.504368-41.907494 1299.214713 1299.214713 0 0 1 141.600368-27.65977l-7.226851 14.783264a197.378943 197.378943 0 0 0-41.742712-47.633655 295.329839 295.329839 0 0 0-53.618759-35.245609q-7.173885-3.742897-14.500782-7.173885c-4.884598-2.301057-9.804506-4.537379-14.783264-6.66777s-10.004598-4.172506-15.053977-6.12046-10.145839-3.872368-15.259954-5.684966a648.862897 648.862897 0 0 0-62.658207-18.685057 664.717241 664.717241 0 0 0-64.358989-12.470437 271.82492 271.82492 0 0 0-7.991908-1.00046l-8.345011-0.918069q-8.350897-0.965149-16.690023-2.012689c-11.122759-1.377103-22.227862-2.942529-33.321195-4.672736-22.169011-3.501609-44.290943-7.597609-66.130391-13.188414-5.455448-1.418299-10.893241-2.942529-16.301609-4.555034s-10.78731-3.378023-16.089748-5.396598a152.08754 152.08754 0 0 1-15.648367-6.797241 72.562759 72.562759 0 0 1-7.426943-4.390253 36.028322 36.028322 0 0 1-3.478069-2.677701 20.51531 20.51531 0 0 1-1.606621-1.588966 14.230069 14.230069 0 0 1-0.747402-0.906299q-0.188322-0.247172-0.353103-0.512l-0.170667-0.288368a4.078345 4.078345 0 0 1-0.200092-0.406069 1.200552 1.200552 0 1 1 2.201012-0.959264c0-0.058851 0 0 0.05885 0.047081l0.123586 0.141241a6.597149 6.597149 0 0 0 0.982805 0.894529 17.749333 17.749333 0 0 0 1.57131 1.124046 34.186299 34.186299 0 0 0 3.472184 1.947954 68.578575 68.578575 0 0 0 7.503448 3.09554 153.229241 153.229241 0 0 0 15.760184 4.566805c10.693149 2.518805 21.545195 4.502069 32.473747 6.079264 21.845333 3.213241 43.878989 5.390713 65.95384 7.15623 11.034483 0.912184 22.092506 1.636046 33.144643 2.354023l16.595862 0.971034 8.303816 0.46492c2.942529 0.158897 5.790897 0.382529 8.639265 0.588506 11.375816 0.947494 22.616276 2.354023 33.83908 4.060689s22.363218 3.754667 33.485977 6.061609a521.157149 521.157149 0 0 1 65.741977 18.243679c5.378943 1.912644 10.734345 3.895908 16.048552 6.002758s10.593103 4.349057 15.819034 6.66777 10.440092 4.708046 15.577748 7.297472 10.222345 5.255356 15.248183 8.050758a321.477149 321.477149 0 0 1 29.313472 18.37315 284.736736 284.736736 0 0 1 27.19485 21.662896 225.76846 225.76846 0 0 1 44.273288 53.989517l7.603494 13.117793-14.830345 1.659587a1261.868138 1261.868138 0 0 0-140.235034 23.987494 1417.957517 1417.957517 0 0 0-137.245426 39.494621c-45.126621 15.095172-89.582345 31.414437-133.102344 50.852781q-32.632644 14.583172-64.506115 30.849471-15.936736 8.109609-31.632184 16.701794c-10.440092 5.749701-20.838989 11.634759-30.955403 17.896459a1.200552 1.200552 0 0 1-1.294712-2.024459z"
    fill="#FFFFFF" p-id="70677"></path>
  <path
    d="M255.923494 641.394759a587.393471 587.393471 0 0 0 84.038621-81.043127 395.946667 395.946667 0 0 0 17.737563-22.998804 257.765517 257.765517 0 0 0 15.465931-24.322943q1.712552-3.09554 3.260322-6.273471l0.782713-1.683127 0.706207-1.694896 1.341793-3.325058q1.318253-3.342713 2.536459-6.720735t2.354023-6.750161q2.224552-6.750161 4.066575-13.623908c1.224092-4.555034 2.212782-9.157149 3.119081-13.741609s1.58308-9.18069 2.077425-13.818115 0.870989-9.216 0.982804-13.818115q0.094161-3.448644 0-6.891403t-0.235402-6.861977q-0.394299-6.826667-1.453609-13.594482a152.905563 152.905563 0 0 0-17.590437-51.276506 178.482023 178.482023 0 0 0-15.077517-22.851678 184.090483 184.090483 0 0 0-18.390805-20.326989q-2.442299-2.312828-5.002298-4.496184l-1.247633-1.041655-1.09462-0.876873c0.076506 0.058851-0.800368-0.588506-0.470805-0.364874l-0.082391-0.076506-0.170666-0.153011-0.341334-0.306023-0.700322-0.665012-1.382988-1.341793-2.736552-2.713011-2.61885-2.871908c-1.765517-1.906759-3.360368-3.995954-4.972874-6.079265a61.275218 61.275218 0 0 1-8.009563-14.206529 28.18354 28.18354 0 0 1-1.924414-8.545103 12.794115 12.794115 0 0 1 0.55908-4.61977 6.838437 6.838437 0 0 1 1.112276-2.077425 3.531034 3.531034 0 0 1 1.765518-1.265288 4.11954 4.11954 0 0 0 0.470804 3.348598 12.358621 12.358621 0 0 0 1.947954 2.542345 42.678437 42.678437 0 0 0 5.067035 4.290207c3.63108 2.683586 7.479908 5.214161 11.369931 7.744735 1.900874 1.312368 3.901793 2.52469 5.814437 3.848828l2.942528 1.918529 2.895449 1.983264 2.548229 1.694897 0.971035 0.717977 0.835678 0.641471 1.606621 1.259402q3.089655 2.483494 6.049839 5.13177a180.918437 180.918437 0 0 1 38.38823 48.845977 162.598253 162.598253 0 0 1 12.082023 28.913288 156.236506 156.236506 0 0 1 6.138115 30.761195 159.626299 159.626299 0 0 1-6.473564 61.381149c-1.459494 4.896368-3.207356 9.686805-5.072919 14.400736s-3.942989 9.333701-6.173425 13.84754q-1.671356 3.383908-3.448644 6.708966t-3.707586 6.544184l-1.930299 3.236781-0.96515 1.571311-0.829793 1.612505c-1.206437 2.277517-2.477609 4.437333-3.784092 6.58538a265.828046 265.828046 0 0 1-17.066666 24.428873 371.288276 371.288276 0 0 1-19.138207 22.580966 486.470621 486.470621 0 0 1-42.44892 40.871724q-22.339678 19.102897-46.491954 35.904736z"
    fill="#FFFFFF" p-id="70678"></path>
  <path
    d="M611.969471 482.35108c-8.292046-7.426943-17.655172-14.712644-26.323862-21.774712s-17.566897-13.85931-26.777011-20.268138c-4.61977-3.183816-9.286621-6.320552-14.053518-9.298391s-9.610299-5.885057-14.494896-8.651034a473.888368 473.888368 0 0 0-61.204598-29.007449 532.238713 532.238713 0 0 0-64.859218-21.00377c-22.080736-5.743816-20.009195-17.690483 2.977839-13.535632a548.334345 548.334345 0 0 1 68.10777 17.196138 494.486069 494.486069 0 0 1 65.371218 26.771126q7.956598 3.925333 15.760184 8.150805c5.208276 2.807172 10.410667 5.661425 15.536552 8.65692q15.418851 8.904092 30.137379 19.085241a307.252966 307.252966 0 0 1 28.11292 22.121931q6.69131 5.938023 13.011862 12.27623"
    fill="#FFFFFF" p-id="70679"></path>
  <path
    d="M473.835402 295.318069a204.152644 204.152644 0 0 1 12.817655 46.362483 208.601747 208.601747 0 0 1 1.830253 48.592919q-0.506115 6.12046-1.353563 12.205609a168.683402 168.683402 0 0 1-2.301057 12.129104 153.541149 153.541149 0 0 1-7.432828 23.681471 171.425839 171.425839 0 0 1-10.975632 22.210207 235.137471 235.137471 0 0 1-13.623908 20.409379c-4.831632 6.544184-9.963402 12.78823-15.148138 18.93223s-10.416552 12.117333-15.889655 18.055357a409.705931 409.705931 0 0 1-34.721839 33.485977 453.855632 453.855632 0 0 1-38.135173 29.26639q-9.869241 6.803126-20.062161 13.117794-5.102345 3.124966-10.25177 6.19108c-3.454529 1.995034-6.903172 4.001839-10.422437 5.885057l18.243679-15.448275q9.080644-7.685885 18.055356-15.489472c11.940782-10.393011 23.604966-21.01554 34.880736-31.967632s22.080736-22.298483 32.461977-34.062713c2.589425-2.942529 5.137655-5.914483 7.71531-8.915862s5.137655-5.979218 7.650575-8.986482q7.538759-8.957057 14.571402-18.320184a221.74308 221.74308 0 0 0 12.947126-19.144092 161.950897 161.950897 0 0 0 10.428322-20.332874 152.517149 152.517149 0 0 0 7.315127-21.586391q0.706207-2.771862 1.318252-5.567264c0.406069-1.900874 0.753287-3.642851 1.129932-5.649655q1.106391-5.673195 1.906758-11.399356a260.284322 260.284322 0 0 0 2.354023-46.55669 347.300782 347.300782 0 0 0-5.308322-47.098115z m110.886253 20.597701a80.866575 80.866575 0 0 1 2.942529 18.696828 110.780322 110.780322 0 0 1-0.759173 18.961655c-0.176552 1.57131-0.417839 3.136736-0.670896 4.708046l-0.394299 2.354023-0.100046 0.588506v0.147126l-0.03531 0.164782-0.064736 0.282482-0.258942 1.118161q-1.082851 4.590345-2.354023 9.139495-2.53646 9.115954-5.826207 17.996505a209.319724 209.319724 0 0 1-16.478161 34.133334 270.071172 270.071172 0 0 1-21.657012 30.77885q-5.843862 7.273931-12.005517 14.283035l-6.102805 6.844322-6.049839 6.850206c-8.091954 9.121839-16.225103 18.461425-25.176275 27.194851a233.048276 233.048276 0 0 1-28.677886 23.946299q-7.579954 5.361287-15.513011 10.20469t-16.107402 9.127724c9.221885-8.20377 18.47908-16.225103 27.294896-24.605426a344.746667 344.746667 0 0 0 25.058575-26.141425c7.844782-9.121839 15.301149-18.690943 23.098851-28.248276 1.930299-2.395218 3.919448-4.749241 5.885057-7.120919s4.013609-4.749241 5.967448-7.014989a476.64846 476.64846 0 0 0 11.558253-13.929931 287.608644 287.608644 0 0 0 20.656552-29.272276 208.236874 208.236874 0 0 0 15.889655-31.77931q3.313287-8.286161 5.920368-16.825379 1.306483-4.278437 2.465839-8.598069l0.300138-1.106391 0.076506-0.276598v-0.070621-0.041195l0.041195-0.135356 0.170667-0.529655 0.665011-2.130391 1.282943-4.278437c1.671356-5.720276 3.260322-11.487632 4.708046-17.366805s2.771862-11.881931 4.249011-18.043586z m125.069242 38.600092a165.823264 165.823264 0 0 1-13.370851 42.066391 193.318253 193.318253 0 0 1-23.54023 37.782069 307.16469 307.16469 0 0 1-30.060873 32.461977c-5.296552 4.878713-10.816736 9.539678-16.666483 13.953471-2.942529 2.206897-5.938023 4.337287-9.080644 6.332322a78.642023 78.642023 0 0 1-9.904552 5.478988 101.381885 101.381885 0 0 1 5.614345-9.780965q2.971954-4.65508 6.291127-9.074759a163.069057 163.069057 0 0 1 14.265379-16.678253c10.175264-10.122299 20.109241-20.362299 29.425287-31.067218a308.824276 308.824276 0 0 0 25.717701-33.833195 408.05223 408.05223 0 0 0 21.350989-37.664368z"
    fill="#FFFFFF" p-id="70680"></path>
  <path
    d="M356.622713 545.250575q8.974713-9.216 18.51439-17.855265a546.645333 546.645333 0 0 1 19.456-16.854804 624.840092 624.840092 0 0 1 41.095357-31.090759 694.219034 694.219034 0 0 1 184.655448-90.629885c16.39577-5.16708 32.956322-9.710345 49.716966-13.535632 8.374437-1.889103 16.772414-3.63108 25.217471-5.137655s16.91954-2.818943 25.429333-3.860598l-24.258207 8.339126c-8.062529 2.801287-16.101517 5.602575-24.09931 8.492138-16.001471 5.761471-31.891126 11.711264-47.62777 17.990621q-47.239356 18.743908-92.766161 41.054161t-89.235127 48.257471q-21.886529 12.947126-43.343448 26.694621c-14.336 9.133609-28.495448 18.608552-42.754942 28.13646z m35.357425-76.664644a304.180966 304.180966 0 0 1 21.627586-25.488184 455.856552 455.856552 0 0 1 23.810943-23.416644 533.250943 533.250943 0 0 1 52.106299-41.683862 562.682115 562.682115 0 0 1 56.690758-35.104367 502.948782 502.948782 0 0 1 29.849012-14.853885c5.067034-2.295172 10.163494-4.519724 15.301149-6.614805s10.375356-4.11954 15.648368-5.885058c-8.857011 6.820782-17.902345 13.200184-26.906483 19.603127s-18.067126 12.635218-27.071264 18.90869q-27.071264 18.755678-53.960092 37.552551t-53.436322 38.188138l-26.65931 19.42069-13.412046 9.73977q-6.744276 4.908138-13.600368 9.663264z m0.717977-92.983908c1.253517-2.354023 2.636506-4.549149 4.07246-6.720736s2.942529-4.272552 4.460873-6.344092a191.735172 191.735172 0 0 1 9.722115-11.911356 232.889379 232.889379 0 0 1 46.244782-39.653517q6.473563-4.172506 13.241379-7.797701c2.283402-1.177011 4.58446-2.354023 6.944368-3.448644s4.749241-2.124506 7.256276-3.013149c-1.494805 2.195126-3.09554 4.249011-4.708046 6.261701s-3.295632 3.966529-4.978759 5.885057q-5.049379 5.714391-10.416552 11.134529c-7.115034 7.17977-14.518437 13.965241-22.139586 20.485885s-15.465931 12.78823-23.646161 18.714483c-4.11954 2.942529-8.23908 5.849747-12.576367 8.603954-2.159816 1.371218-4.337287 2.736552-6.57361 4.037149s-4.496184 2.589425-6.885517 3.748782z"
    fill="#FFFFFF" p-id="70681"></path>
  <path
    d="M379.886345 286.514023a128.482575 128.482575 0 0 1 14.35954 24.346483c1.947954 4.272552 3.778207 8.609839 5.396598 13.029517l1.177011 3.325057c0.411954 1.177011 0.782713 2.153931 1.177012 3.366253 0.759172 2.318713 1.435954 4.59623 2.018574 6.938483a92.318897 92.318897 0 0 1 2.624736 28.672 83.279448 83.279448 0 0 1-2.236322 14.224184 61.793103 61.793103 0 0 1-4.984643 13.588598c-1.124046-4.790437-1.794943-9.416092-2.50115-13.971127l-1.977379-13.441471c-1.277057-8.827586-2.642391-17.484506-4.219586-26.188506l-1.177012-6.514758q-0.294253-1.659586-0.635586-3.313288l-0.723862-3.325057-2.901333-13.376736c-1.865563-8.974713-3.884138-17.96708-5.396598-27.359632z m17.066666 163.116138a43.979034 43.979034 0 0 1 7.791817 0.712092 60.162943 60.162943 0 0 1 7.585839 1.836138 66.501149 66.501149 0 0 1 14.32423 6.438253 72.486253 72.486253 0 0 1 22.951724 21.957149 75.475862 75.475862 0 0 1 11.658299 29.372322 73.033563 73.033563 0 0 1 0.941609 15.548322 67.831172 67.831172 0 0 1-0.818023 7.71531 48.222161 48.222161 0 0 1-1.836138 7.591724c-1.212322-2.354023-2.248092-4.672736-3.272092-6.962023l-3.001379-6.744276q-2.854253-6.473563-5.885058-12.876505a191.146667 191.146667 0 0 0-13.117793-23.398989 163.098483 163.098483 0 0 0-16.584092-20.850758q-4.790437-5.125885-9.857471-10.004598c-1.724322-1.677241-3.531034-3.336828-5.296552-5.055265s-3.678161-3.425103-5.537839-5.296551z m-138.081103 189.49885s-75.499402 51.229425-39.047356 104.989426c0 0 26.300322 46.374253 119.749149 71.526988 0 0 106.825563 24.687816 162.892506 21.915954 0 0 6.69131-1.382989-11.999632-5.072919 0 0-53.960092-8.003678-108.443954-19.149977a308.77131 308.77131 0 0 1-90.676966-33.456552s-95.749885-52.606529-50.988138-110.515494a178.629149 178.629149 0 0 1 38.547127-40.701058"
    fill="#FFFFFF" p-id="70682"></path>
  <path
    d="M496.60469 837.184736a890.362115 890.362115 0 0 0 55.549057-186.256184s13.094253-77.158989 0-142.589058l14.765609-5.214161s14.765609 61.510621-2.306942 170.41361c0 0-15.365885 88.52892-61.051586 163.516321"
    fill="#FFFFFF" p-id="70683"></path>
  <path
    d="M502.489747 837.008184a18.379034 18.379034 0 0 1-2.754207 0.170667c-2.742437 0-2.760092-1.324138-2.760092-1.324138m-274.108322-136.015449s167.047356-46.60377 215.98161-66.913103c0 0 94.596414-36.452046 122.744643-65.065195v9.680919s-80.960736 61.851954-164.616827 83.079356c0 0-97.527172 29.531218-174.127081 43.837793v-4.613885z"
    fill="#FFFFFF" p-id="70684"></path>
  <path
    d="M266.675494 767.676322s95.590989-124.133517 122.091403-197.502529l18.655632-8.768736s-22.016 81.213793-82.137747 140.74115c0 0-42.913839 53.554023-54.913472 70.62069z m204.900046-233.513196s10.76377 66.913103-43.302253 160.126529c0 0-47.145195 89.982529-75.752459 119.978667h8.768735s47.08046-40.147862 98.28046-151.834483c0 0 33.109333-83.061701 24.405333-131.978299z m-105.213057 280.128736s145.484506-42.578391 159.661609-48.451678v4.613885s-110.750897 44.290943-159.661609 43.837793z"
    fill="#FFFFFF" p-id="70685"></path>
  <path
    d="M531.102897 763.521471s-101.058207-13.382621-156.895633-65.52423c0 0-61.834299-46.60377-37.146482-106.137011l-20.532966 4.613885s-15.230529 56.761379 29.072184 95.985287c0 0 64.600276 72.909977 185.502897 71.062069z m-123.668598-203.964322s21.227402 85.368644 147.661977 107.52l6.473563-2.771862s-142.583172-47.527724-142.583172-110.903908l-11.540598 6.15577z"
    fill="#FFFFFF" p-id="70686"></path>
  <path
    d="M274.532046 772.755126s148.01508-48.916598 181.348046-64.147126c0 0 60.910345-19.844414 105.672092-48.910713l-3.689931 7.385747a592.560552 592.560552 0 0 1-111.668966 55.837426 1201.216736 1201.216736 0 0 1-175.374712 53.989517z m210.89692-240.416367s73.357241 44.296828 82.125977 44.761747v-3.230897s-71.409287-42.913839-77.982897-47.527724z m21.668781-230.264644s-41.065931-58.603402-52.141609-111.668966c0 0-152.740782 50.758621-143.972046 77.982897l19.073471 9.298391 3.077885-1.453609s-14.765609-13.841655 35.993012-41.530851c0 0 48.916598-26.765241 83.061701-37.84092 0 0 11.534713 80.295724 39.223908 102.906115z"
    fill="#FFFFFF" p-id="70687"></path>
  <path d="M352.979862 239.309977l37.41131 49.834667 18.467311 1.847908-55.908046-56.76138z" fill="#FFFFFF"
    p-id="70688"></path>
  <path
    d="M471.57554 259.61931s-118.595678-8.303816-113.516873-25.382253h5.996873s101.258299 19.973885 107.52 18.92046z m-32.903356 32.762115s35.675218-28.101149 37.075862-28.583724l-2.306943-4.178391s-45.456184 25.776552-53.871816 27.883403 19.097011 4.878713 19.097012 4.878712z"
    fill="#FFFFFF" p-id="70689"></path>
</svg>