<svg t="1710384085939" class="icon" viewBox="0 0 1024 1024" version="1.1" xmlns="http://www.w3.org/2000/svg"
  p-id="37846" width="200" height="200">
  <path
    d="M928 222v622.8a83.19 83.19 0 0 1-83.2 83.2H222A126 126 0 0 1 96 802V222A125.93 125.93 0 0 1 222 96h580a126 126 0 0 1 126 126z"
    fill="#00DEBF" p-id="37847"></path>
  <path
    d="M294 753h436a48.05 48.05 0 0 0 48-48V319.76a48.06 48.06 0 0 0-48-48H294a48.06 48.06 0 0 0-48 48V705a48.05 48.05 0 0 0 48 48z m436-449.24a16 16 0 0 1 16 16v69h-30.57l-50.81-85z m-102.63 0l0.23 0.45 50.54 84.53h-66.32l-50.81-85z m-103.62 0c0.09 0.15 0.15 0.3 0.24 0.45l50.54 84.53h-66.32l-50.81-85z m-103.61 0c0.09 0.15 0.15 0.3 0.24 0.45l50.54 84.53h-66.33l-50.8-85z m-142.14 16a16 16 0 0 1 16-16h22.53c0.08 0.15 0.15 0.3 0.24 0.45l50.54 84.53H278z m0 101h468V705a16 16 0 0 1-16 16H294a16 16 0 0 1-16-16z"
    fill="#FFFFFF" p-id="37848"></path>
  <path
    d="M432.51 663.38a46.17 46.17 0 0 0 45.43 1.79l115.68-58.94a46.37 46.37 0 0 0 1.38-81.94l-115.7-63.84a46.46 46.46 0 0 0-68.95 40.6v122.79a46 46 0 0 0 22.16 39.54z m9.84-162.33a14.16 14.16 0 0 1 7.09-12.38 14.85 14.85 0 0 1 7.44-2.07 14.29 14.29 0 0 1 6.95 1.86l115.69 63.85a14.37 14.37 0 0 1-0.42 25.41l-115.69 58.94a14.47 14.47 0 0 1-21.06-12.82z"
    fill="#FFFFFF" p-id="37849"></path>
</svg>