<svg t="1710310087284" class="icon" viewBox="0 0 1024 1024" version="1.1" xmlns="http://www.w3.org/2000/svg"
  p-id="65074" width="200" height="200">
  <path d="M832 128a64 64 0 0 1 64 64v640a64 64 0 0 1-64 64H192a64 64 0 0 1-64-64V192a64 64 0 0 1 64-64h640z"
    fill="#D94052" p-id="65075"></path>
  <path
    d="M272 320c0-41.28 48.192-62.688 78.72-36.896l3.2 2.944L656 588.128V320a48 48 0 0 1 43.392-47.776L704 272a48 48 0 0 1 47.776 43.392L752 320v384c0 41.28-48.192 62.688-78.72 36.896l-3.2-2.944L368 435.872V704a48 48 0 0 1-43.392 47.776L320 752a48 48 0 0 1-47.776-43.392L272 704V320z"
    fill="#FFFFFF" p-id="65076"></path>
</svg>