<svg t="1710309627504" class="icon" viewBox="0 0 1024 1024" version="1.1" xmlns="http://www.w3.org/2000/svg"
  p-id="20263" width="200" height="200">
  <path
    d="M0 0m170.666667 0l682.666666 0q170.666667 0 170.666667 170.666667l0 682.666666q0 170.666667-170.666667 170.666667l-682.666666 0q-170.666667 0-170.666667-170.666667l0-682.666666q0-170.666667 170.666667-170.666667Z"
    fill="#F25050" p-id="20264"></path>
  <path
    d="M128 598.698667c20.736-7.082667 40.448-13.952 60.330667-20.352 1.962667-0.682667 5.205333 0.64 7.296 1.877333 22.186667 12.8 44.202667 25.856 66.474666 38.656a10.88 10.88 0 0 0 7.765334 1.152c45.226667-15.104 90.282667-30.464 135.381333-45.738667 0.725333-0.256 1.408-0.725333 2.730667-1.365333L234.453333 323.584c2.048-0.853333 3.669333-1.578667 5.290667-2.133333 21.376-7.296 42.837333-14.421333 64.085333-21.930667 4.522667-1.621333 7.509333-0.853333 11.178667 1.834667 91.605333 67.882667 183.338667 135.637333 274.858667 203.562666 4.736 3.498667 8.362667 3.968 13.952 2.048a65322.666667 65322.666667 0 0 1 218.752-74.325333c33.962667-11.52 67.498667 7.168 72.874666 40.277333 3.669333 22.613333-11.306667 45.056-35.968 53.461334-57.429333 19.584-114.858667 39.04-172.330666 58.538666l-401.066667 136.149334c-28.842667 9.813333-50.858667 2.517333-69.290667-20.565334-16.810667-21.077333-35.413333-40.96-53.290666-61.269333L128 598.698667z"
    fill="#FFFFFF" p-id="20265"></path>
</svg>