<svg t="1710386255664" class="icon" viewBox="0 0 1024 1024" version="1.1" xmlns="http://www.w3.org/2000/svg"
  p-id="80566" width="200" height="200">
  <path d="M0 0m128 0l768 0q128 0 128 128l0 768q0 128-128 128l-768 0q-128 0-128-128l0-768q0-128 128-128Z" fill="#13C2C2"
    p-id="80567"></path>
  <path d="M1024 512c0 282.773333-229.226667 512-512 512S0 794.773333 0 512 229.226667 0 512 0s512 229.226667 512 512z"
    fill="#13C2C2" p-id="80568"></path>
  <path
    d="M543.957333 533.333333h146.986667L449.344 768h-77.226667l85.333334-256h-108.416l66.666666-213.333333h213.546667l-85.333333 234.666666z m155.882667-241.408A42.666667 42.666667 0 0 0 659.733333 234.666667H400.042667a42.666667 42.666667 0 0 0-40.725334 29.930666l-80 256A42.709333 42.709333 0 0 0 320.042667 576h48.618666l-66.602666 199.829333A42.666667 42.666667 0 0 0 342.506667 832h115.477333a42.666667 42.666667 0 0 0 29.738667-12.053333l285.482666-277.333334c27.477333-26.709333 8.597333-73.28-29.717333-73.28H635.306667l64.512-177.408z"
    fill="#FFFFFF" p-id="80569"></path>
</svg>