<svg height="144px" width="144px" version="1.1" id="Layer_1" xmlns="http://www.w3.org/2000/svg"
  xmlns:xlink="http://www.w3.org/1999/xlink" viewBox="-51.2 -51.2 614.40 614.40" xml:space="preserve" fill="#000000">
  <g id="SVGRepo_bgCarrier" stroke-width="0"></g>
  <g id="SVGRepo_tracerCarrier" stroke-linecap="round" stroke-linejoin="round"></g>
  <g id="SVGRepo_iconCarrier">
    <circle style="fill:#6B7F9E;" cx="256" cy="256" r="256"></circle>
    <path style="fill:#83CF8F;"
      d="M256,186.482c56.522,0,107.612,22.898,144.675,59.891c36.994,36.994,59.892,88.153,59.892,144.675 c0,6.807-0.344,13.477-0.963,20.078c-5.501,7.22-11.346,14.096-17.534,20.697c2.338-10.864,3.851-22.141,4.263-33.624H374.82 c-0.825,25.923-5.914,51.778-15.265,76.119c7.495,1.513,14.646,3.163,21.454,5.02c-6.257,3.507-12.721,6.807-19.322,9.764 c-2.544-0.55-5.088-1.031-7.701-1.582c-0.963,2.063-1.925,4.057-2.888,6.051c-6.464,2.613-13.133,4.951-19.872,7.014 c1.375-2.338,2.682-4.607,3.919-7.014c1.513-2.819,2.957-5.707,4.332-8.595c-23.723-3.644-49.99-5.57-76.463-5.845v32.593 c-2.338,0.069-4.745,0.069-7.082,0.069c-2.338,0-4.745-0.069-7.082-0.069v-32.593c-26.473,0.275-52.74,2.269-76.463,5.914 c1.375,2.888,2.819,5.707,4.332,8.526c1.238,2.338,2.544,4.676,3.919,7.014c-6.739-2.063-13.34-4.401-19.872-7.014 c-0.963-1.994-1.925-3.988-2.819-5.982c-2.544,0.481-5.088,1.031-7.633,1.513c-6.601-2.957-12.996-6.257-19.322-9.764 c6.739-1.857,13.89-3.507,21.385-5.02c-9.352-24.41-14.44-50.265-15.265-76.257H65.599c0.413,11.483,1.857,22.691,4.263,33.625 c-6.189-6.532-12.102-13.477-17.534-20.697c-0.619-6.601-0.963-13.271-0.963-20.078c0-56.522,22.898-107.612,59.891-144.675 c36.994-36.994,88.153-59.891,144.675-59.891L256,186.482z M65.736,384.034h71.443c0.756-28.192,6.601-56.316,17.465-82.514 c-21.935-4.263-41.326-10.039-56.247-17.328C78.938,312.866,67.111,347.109,65.736,384.034z M106.925,272.64 c14.302,6.67,32.799,11.896,53.703,15.746c1.306-2.682,2.682-5.295,4.126-7.976c16.915-31.012,41.463-58.447,73.781-79.007 c-45.589,4.126-86.571,24.41-117.17,54.941c-5.157,5.157-9.97,10.521-14.509,16.228L106.925,272.64z M273.534,201.472 c32.318,20.56,56.866,47.927,73.781,79.007c1.444,2.682,2.819,5.295,4.126,8.045c20.972-3.851,39.469-9.077,53.703-15.815 c-4.538-5.707-9.352-11.139-14.509-16.228c-30.599-30.599-71.581-50.815-117.17-54.941L273.534,201.472z M413.739,284.261 c-14.921,7.358-34.312,13.133-56.247,17.397c10.864,26.198,16.64,54.184,17.397,82.377h71.443 C445.026,347.109,433.13,312.866,413.739,284.261z M263.151,211.649v84.714c25.511-0.275,50.746-2.063,73.713-5.432 c-0.619-1.238-1.306-2.475-1.925-3.644c-16.228-29.843-40.157-56.178-71.787-75.569V211.649z M263.151,310.528v73.575h97.642 c-0.825-27.367-6.67-54.597-17.603-79.901C318.298,308.121,290.793,310.253,263.151,310.528z M263.151,398.268v66.905 c28.467,0.275,56.797,2.544,82.308,6.67c9.352-23.517,14.44-48.477,15.265-73.575H263.151z M248.986,465.173v-66.905h-97.573 c0.825,25.167,5.982,50.196,15.334,73.644c25.511-4.194,53.84-6.395,82.308-6.739H248.986z M248.986,384.103v-73.575 c-27.642-0.344-55.078-2.475-80.039-6.395c-10.933,25.304-16.778,52.534-17.603,79.97H248.986z M248.986,296.363v-84.646 c-31.63,19.391-55.559,45.727-71.787,75.569c-0.619,1.169-1.306,2.407-1.925,3.644c23.035,3.369,48.271,5.226,73.713,5.501V296.363z ">
    </path>
    <path style="fill:#E4E7ED;"
      d="M404.8,203.122l-2.2-2.2l-8.939-8.939l-2.2-2.2c-7.082,2.682-15.953,14.302-19.391,21.591l1.1,1.1 l8.939,8.939l1.1,1.1C390.498,219.006,402.119,210.136,404.8,203.122z">
    </path>
    <path style="fill:#FFFFFF;"
      d="M404.8,203.122l-2.2-2.2l-8.939-8.939l-2.2-2.2c-1.65,0.619-3.369,1.719-5.088,3.094l15.265,15.265 c1.375-1.719,2.475-3.438,3.094-5.088L404.8,203.122z">
    </path>
    <path style="fill:#E4E7ED;"
      d="M419.79,245.755l-2.2-2.2l-8.939-8.939l-2.2-2.2c-7.082,2.682-15.953,14.302-19.391,21.591l1.1,1.1 l8.939,8.939l1.1,1.1C405.488,261.638,417.109,252.768,419.79,245.755z">
    </path>
    <path style="fill:#FFFFFF;"
      d="M419.79,245.755l-2.2-2.2l-8.939-8.939l-2.2-2.2c-1.65,0.619-3.369,1.719-5.088,3.094l15.265,15.265 c1.375-1.719,2.475-3.438,3.094-5.088L419.79,245.755z">
    </path>
    <path style="fill:#E4E7ED;"
      d="M297.395,95.785l2.2,2.2l8.939,8.939l2.2,2.2c-2.682,7.082-14.302,15.953-21.591,19.391l-1.1-1.1 l-8.939-8.939l-1.1-1.1C281.511,110.088,290.381,98.467,297.395,95.785z">
    </path>
    <path style="fill:#FFFFFF;"
      d="M297.395,95.785l2.2,2.2l8.939,8.939l2.2,2.2c-0.619,1.65-1.719,3.369-3.094,5.088l-15.265-15.265 c1.719-1.375,3.438-2.475,5.088-3.094L297.395,95.785z">
    </path>
    <path style="fill:#E4E7ED;"
      d="M254.762,80.795l2.2,2.2l8.939,8.939l2.2,2.2c-2.682,7.082-14.302,15.953-21.591,19.391l-1.1-1.1 l-8.939-8.939l-1.1-1.1C238.878,95.098,247.749,83.477,254.762,80.795z">
    </path>
    <g>
      <path style="fill:#FFFFFF;"
        d="M254.762,80.795l2.2,2.2l8.939,8.939l2.2,2.2c-0.619,1.65-1.719,3.369-3.094,5.088l-15.265-15.265 c1.719-1.375,3.438-2.475,5.088-3.094L254.762,80.795z">
      </path>
      <path style="fill:#FFFFFF;"
        d="M216.324,284.261c0,0,0.206,2.338,6.67-1.444l26.267,37.406l8.389-10.108l-14.853-39.332 c1.857-1.582-1.65,1.582,6.051-5.363c7.701-6.945,41.463-37.956,71.994-62.779L408.857,327.1l8.045-8.045l-48.683-155.127 c19.872-16.365,35.275-29.499,39.4-34.243c12.652-14.509,24.135-33.831,15.059-51.915c-18.084-9.077-37.406,2.407-51.915,15.059 c-4.745,4.126-17.809,19.528-34.243,39.4L181.393,83.546l-8.045,8.045l124.459,88.015c-24.823,30.599-55.903,64.292-62.779,71.994 c-6.945,7.701-3.713,4.194-5.363,6.051l-39.332-14.853l-10.108,8.389l37.406,26.267c-3.713,6.464-1.444,6.67-1.444,6.67 L216.324,284.261z">
      </path>
    </g>
    <g>
      <polygon style="fill:#E4E7ED;" points="222.926,282.817 249.261,320.223 251.255,317.748 225.745,280.892 ">
      </polygon>
      <polygon style="fill:#E4E7ED;" points="182.769,249.261 180.293,251.255 217.7,277.591 219.694,274.772 "></polygon>
      <polygon style="fill:#E4E7ED;" points="320.774,202.641 408.857,327.1 411.952,324.005 325.999,198.378 "></polygon>
      <polygon style="fill:#E4E7ED;" points="176.511,88.634 173.417,91.728 297.876,179.743 302.139,174.517 "></polygon>
      <path style="fill:#E4E7ED;"
        d="M415.115,85.402c-1.788-1.788-3.919-3.026-6.326-3.782l-1.444,4.057 c1.513,0.894,2.957,1.994,4.194,3.301c1.306,1.306,2.407,2.682,3.301,4.194l4.057-1.444 C418.14,89.322,416.902,87.19,415.115,85.402z M405.557,80.933c-3.713-0.413-7.77,0.138-11.758,1.65 c3.644-0.275,7.22,0.206,10.589,1.582L405.557,80.933z M416.352,96.129c1.375,3.369,1.857,6.945,1.582,10.589 c1.513-3.988,2.132-8.045,1.65-11.758L416.352,96.129z">
      </path>
    </g>
    <g>
      <path style="fill:#FFFFFF;"
        d="M221.688,306.471l-78.251,83.546l82.308-77.838L221.688,306.471z M184.694,273.328l-76.738,81.964 l82.308-77.838l-5.501-4.126H184.694z">
      </path>
      <path style="fill:#FFFFFF;"
        d="M366.225,287.974l-89.322,96.266l94.204-89.115L366.225,287.974z M201.472,129.41l-89.322,96.266 l96.266-91.041L201.472,129.41z">
      </path>
    </g>
  </g>
</svg>