<svg t="1710383987624" class="icon" viewBox="0 0 1088 1024" version="1.1" xmlns="http://www.w3.org/2000/svg"
  p-id="31551" width="200" height="200">
  <path d="M44.032 0h1024v1024h-1024z" fill="#D8D8D8" fill-opacity=".01" p-id="31552"></path>
  <path
    d="M869.184 946.24h-640a121.536 121.536 0 0 1-121.152-121.088V184.96C108.032 118.464 162.56 64 229.12 64h640c66.56 0 121.024 54.4 121.024 121.024v640.128c0 66.56-54.4 121.088-120.96 121.088"
    fill="#1296db" p-id="31553" data-spm-anchor-id="a313x.search_index.0.i8.19ff3a81EduPzH" class="selected"></path>
  <path
    d="M889.152 270.72c-10.624-53.568-50.304-92.096-103.872-103.872-69.568-17.088-146.56 4.288-209.664 33.216-50.432 23.552-97.472 54.592-141.44 90.944-71.68 61.056-132.608 136-171.136 221.632-27.776 62.08-48.128 138.048-24.704 205.44 8.704 26.88 24.704 51.392 48.192 67.456 28.992 20.352 65.28 26.752 99.52 25.728 43.968-2.176 85.76-15.04 125.184-33.216v-2.112l-5.184-5.376h-1.216l1.216 1.088a429.76 429.76 0 0 1-72.96 18.176c-56.64 8.512-128.384-3.2-152.96-62.08-85.696-203.328 397.12-621.888 555.52-499.84h-1.024c5.248 5.312 11.84 10.688 16.064 17.088 10.624 15.04 17.024 33.28 20.288 50.304 5.44 35.328 0 71.744-8.512 104.96-3.264 10.688-6.528 20.352-9.6 29.952h9.6c22.464-49.28 38.4-105.92 26.688-159.488"
    fill="#FFFFFF" p-id="31554"></path>
  <path
    d="M521.984 131.52c-185.088 0-337.088 148.736-337.088 330.752 0 38.528 7.424 77.056 20.288 111.36 6.4-23.552 14.912-48.128 24.576-69.568v-2.176l2.176-1.088v-2.112a618.112 618.112 0 0 1 66.368-111.36c1.024-9.6 1.024-18.176 1.024-27.776 0-19.264 28.928-23.552 51.52-35.328 6.4-7.552 13.76-13.952 20.288-20.352 5.312-19.264-15.04-52.48-27.84-71.68a294.4 294.4 0 0 1 178.688-59.968c10.688 0 21.504 0 30.016 1.088 3.2-1.088 6.4-2.176 9.728-3.2 19.136-9.728 38.4-17.152 59.904-23.68a337.664 337.664 0 0 0-99.648-14.912M314.368 721.28c17.216 12.864 35.392 24.64 53.568 34.24 20.288 4.352 42.752 3.264 60.928 1.152 3.264-1.152 7.552-1.152 10.752-2.176l-17.152-16h9.664a312.768 312.768 0 0 1-103.872-58.88c23.68 12.8 52.48 18.112 78.208 14.912 53.504-7.488-41.792-50.24 5.376-73.792 46.016-22.528 51.264-83.52 36.416-78.08-16.128 5.248-52.48-9.728-80.32-28.992-12.928 19.264-23.68 37.504-34.24 56.768-21.504 40.64-41.792 99.456-22.592 144.448 1.088 2.176 2.176 5.312 3.264 6.4M545.536 791.936c174.528-11.712 313.6-154.112 314.752-328.576h-41.792c0 13.888-2.112 27.84-4.288 41.728-6.336-24.64-18.176-49.216-44.864-67.456-18.176-12.8-32.064-67.392-21.44-85.632 6.4-10.624 23.616-19.2 36.352-24.576a284.16 284.16 0 0 1 32.128 100.608v-74.88l18.176 17.088c2.176-8.576 3.264-16 4.224-24.64a332.544 332.544 0 0 0-67.264-105.984c-33.28-2.112-71.808 9.6-97.536 20.48-12.8 5.248-25.664 10.624-37.504 17.024 25.728 19.328 50.368 41.728 61.12 47.168 13.952 7.36 32.128 67.328 28.8 92.032-4.224 24.576-46.976 53.44-36.352 78.08 10.688 24.64-7.488 53.504-7.488 53.504s-18.176 81.408-28.928 91.008c-10.56 10.688-75.968 39.552-60.992 57.728 13.952 17.152 57.792-4.224 101.76-14.912 9.6-2.176 20.224-5.376 31.04-9.6a293.056 293.056 0 0 1-191.68 79.168l11.776 11.776v28.864z"
    fill="#FFFFFF" p-id="31555"></path>
</svg>